<svg width="32" height="32" viewBox="0 0 32 32" fill="none" xmlns="http://www.w3.org/2000/svg">
<path d="M11.9392 3.86205C12.9296 4.80111 14.551 4.47859 15.1067 3.23198C15.4513 2.45889 16.5487 2.45889 16.8933 3.23198C17.449 4.47859 19.0704 4.80111 20.0608 3.86205C20.6751 3.27969 21.6889 3.69961 21.7114 4.54573C21.7477 5.91011 23.1223 6.82856 24.3967 6.34001C25.187 6.03703 25.963 6.81295 25.66 7.60329C25.1714 8.87771 26.0899 10.2523 27.4543 10.2886C28.3004 10.3111 28.7203 11.3249 28.138 11.9392C27.1989 12.9296 27.5214 14.551 28.768 15.1067C29.5411 15.4513 29.5411 16.5487 28.768 16.8933C27.5214 17.449 27.1989 19.0704 28.138 20.0608C28.7203 20.6751 28.3004 21.6889 27.4543 21.7114C26.0899 21.7477 25.1714 23.1223 25.66 24.3967C25.963 25.187 25.187 25.963 24.3967 25.66C23.1223 25.1714 21.7477 26.0899 21.7114 27.4543C21.6889 28.3004 20.6751 28.7203 20.0608 28.138C19.0704 27.1989 17.449 27.5214 16.8933 28.768C16.5487 29.5411 15.4513 29.5411 15.1067 28.768C14.551 27.5214 12.9296 27.1989 11.9392 28.138C11.3249 28.7203 10.3111 28.3004 10.2886 27.4543C10.2523 26.0899 8.87771 25.1714 7.60329 25.66C6.81295 25.963 6.03703 25.187 6.34001 24.3967C6.82856 23.1223 5.91011 21.7477 4.54573 21.7114C3.69961 21.6889 3.27969 20.6751 3.86205 20.0608C4.80111 19.0704 4.47859 17.449 3.23198 16.8933C2.45889 16.5487 2.45889 15.4513 3.23198 15.1067C4.47859 14.551 4.80111 12.9296 3.86205 11.9392C3.27969 11.3249 3.69961 10.3111 4.54573 10.2886C5.9101 10.2523 6.82856 8.87771 6.34001 7.60329C6.03703 6.81295 6.81295 6.03703 7.60329 6.34001C8.87771 6.82856 10.2523 5.91011 10.2886 4.54573C10.3111 3.69961 11.3249 3.27969 11.9392 3.86205Z" stroke="currentColor"/>
<path d="M9.2047 19.07C8.76136 19.07 8.38103 19.0047 8.0637 18.874C7.74636 18.7433 7.50603 18.573 7.3427 18.363C7.18403 18.1483 7.10003 17.915 7.0907 17.663C7.0907 17.6257 7.1047 17.593 7.1327 17.565C7.16536 17.5323 7.2027 17.516 7.2447 17.516H8.1267C8.1827 17.516 8.22703 17.5277 8.2597 17.551C8.29703 17.5697 8.33436 17.6 8.3717 17.642C8.43236 17.7633 8.53036 17.8637 8.6657 17.943C8.80103 18.0223 8.9807 18.062 9.2047 18.062C9.4707 18.062 9.6737 18.02 9.8137 17.936C9.9537 17.852 10.0237 17.7377 10.0237 17.593C10.0237 17.4903 9.98636 17.4063 9.9117 17.341C9.8417 17.2757 9.7297 17.2173 9.5757 17.166C9.4217 17.1147 9.19303 17.0563 8.8897 16.991C8.3297 16.8743 7.9097 16.704 7.6297 16.48C7.35436 16.2513 7.2167 15.927 7.2167 15.507C7.2167 15.2223 7.29603 14.968 7.4547 14.744C7.61336 14.52 7.8397 14.345 8.1337 14.219C8.4277 14.093 8.7707 14.03 9.1627 14.03C9.5687 14.03 9.92103 14.1 10.2197 14.24C10.5184 14.38 10.7447 14.5573 10.8987 14.772C11.0574 14.982 11.1414 15.1897 11.1507 15.395C11.1507 15.437 11.1367 15.472 11.1087 15.5C11.0807 15.528 11.0457 15.542 11.0037 15.542H10.0797C10.0237 15.542 9.97703 15.5327 9.9397 15.514C9.90703 15.4953 9.8767 15.465 9.8487 15.423C9.8207 15.3157 9.7437 15.2247 9.6177 15.15C9.49636 15.0753 9.3447 15.038 9.1627 15.038C8.9527 15.038 8.7917 15.0753 8.6797 15.15C8.5677 15.2247 8.5117 15.3343 8.5117 15.479C8.5117 15.577 8.54203 15.6587 8.6027 15.724C8.66803 15.7893 8.7707 15.85 8.9107 15.906C9.05536 15.9573 9.2607 16.011 9.5267 16.067C9.9607 16.1463 10.306 16.2467 10.5627 16.368C10.824 16.4847 11.0154 16.6387 11.1367 16.83C11.258 17.0167 11.3187 17.2523 11.3187 17.537C11.3187 17.8497 11.2277 18.1227 11.0457 18.356C10.8684 18.5847 10.6187 18.762 10.2967 18.888C9.97936 19.0093 9.61536 19.07 9.2047 19.07ZM11.6641 19C11.6268 19 11.5918 18.986 11.5591 18.958C11.5311 18.9253 11.5171 18.8903 11.5171 18.853C11.5171 18.825 11.5194 18.804 11.5241 18.79L13.1691 14.296C13.1831 14.24 13.2134 14.1933 13.2601 14.156C13.3068 14.1187 13.3674 14.1 13.4421 14.1H14.4781C14.5528 14.1 14.6134 14.1187 14.6601 14.156C14.7068 14.1933 14.7371 14.24 14.7511 14.296L16.3891 18.79L16.4031 18.853C16.4031 18.8903 16.3868 18.9253 16.3541 18.958C16.3261 18.986 16.2911 19 16.2491 19H15.3881C15.2761 19 15.2014 18.951 15.1641 18.853L14.8911 18.139H13.0221L12.7561 18.853C12.7188 18.951 12.6418 19 12.5251 19H11.6641ZM14.6111 17.131L13.9601 15.283L13.3091 17.131H14.6111ZM17.1298 19C17.0832 19 17.0412 18.9837 17.0038 18.951C16.9712 18.9137 16.9548 18.8717 16.9548 18.825V14.275C16.9548 14.2237 16.9712 14.1817 17.0038 14.149C17.0412 14.1163 17.0832 14.1 17.1298 14.1H18.0538C18.1052 14.1 18.1472 14.1163 18.1798 14.149C18.2125 14.1817 18.2288 14.2237 18.2288 14.275V17.943H20.3498C20.4012 17.943 20.4432 17.9617 20.4758 17.999C20.5085 18.0317 20.5248 18.0737 20.5248 18.125V18.825C20.5248 18.8717 20.5085 18.9137 20.4758 18.951C20.4432 18.9837 20.4012 19 20.3498 19H17.1298ZM21.3066 19C21.2599 19 21.2179 18.9837 21.1806 18.951C21.1479 18.9137 21.1316 18.8717 21.1316 18.825V14.275C21.1316 14.2237 21.1479 14.1817 21.1806 14.149C21.2179 14.1163 21.2599 14.1 21.3066 14.1H24.5756C24.6269 14.1 24.6689 14.1163 24.7016 14.149C24.7343 14.1817 24.7506 14.2237 24.7506 14.275V14.933C24.7506 14.9797 24.7343 15.0217 24.7016 15.059C24.6689 15.0917 24.6269 15.108 24.5756 15.108H22.3426V16.053H24.4216C24.4729 16.053 24.5149 16.0717 24.5476 16.109C24.5803 16.1417 24.5966 16.1837 24.5966 16.235V16.844C24.5966 16.8907 24.5803 16.9327 24.5476 16.97C24.5149 17.0027 24.4729 17.019 24.4216 17.019H22.3426V17.992H24.6316C24.6829 17.992 24.7249 18.0083 24.7576 18.041C24.7903 18.0737 24.8066 18.1157 24.8066 18.167V18.825C24.8066 18.8717 24.7903 18.9137 24.7576 18.951C24.7249 18.9837 24.6829 19 24.6316 19H21.3066Z" fill="currentColor"/>
</svg>

