<svg width="42" height="28" viewBox="0 0 42 28" fill="none" xmlns="http://www.w3.org/2000/svg">
<path d="M27.6301 14.1918V14.1918C26.8971 10.6758 21.921 10.5528 21.0152 14.0284L20.9726 14.1918L20.9277 14.3592C20.0033 17.8106 15.0637 17.6855 14.3151 14.1918V14.1918" stroke="currentColor"/>
<path d="M14.3151 14.1918V14.1918C13.582 10.6758 8.60589 10.5528 7.7001 14.0284L7.65751 14.1918L7.61267 14.3592C6.6882 17.8106 1.74865 17.6855 0.999995 14.1918V14.1918" stroke="currentColor"/>
<path d="M40.9452 14.1918V14.1918C40.2121 10.6758 35.236 10.5528 34.3302 14.0284L34.2876 14.1918L34.2428 14.3592C33.3183 17.8106 28.3788 17.6855 27.6301 14.1918V14.1918" stroke="currentColor"/>
</svg>
