<svg width="32" height="32" viewBox="0 0 32 32" fill="none" xmlns="http://www.w3.org/2000/svg">
<path d="M11.9392 3.86205C12.9296 4.80111 14.551 4.47859 15.1067 3.23198C15.4513 2.45889 16.5487 2.45889 16.8933 3.23198C17.449 4.47859 19.0704 4.80111 20.0608 3.86205C20.6751 3.27969 21.6889 3.69961 21.7114 4.54573C21.7477 5.91011 23.1223 6.82856 24.3967 6.34001C25.187 6.03703 25.963 6.81295 25.66 7.60329C25.1714 8.87771 26.0899 10.2523 27.4543 10.2886C28.3004 10.3111 28.7203 11.3249 28.138 11.9392C27.1989 12.9296 27.5214 14.551 28.768 15.1067C29.5411 15.4513 29.5411 16.5487 28.768 16.8933C27.5214 17.449 27.1989 19.0704 28.138 20.0608C28.7203 20.6751 28.3004 21.6889 27.4543 21.7114C26.0899 21.7477 25.1714 23.1223 25.66 24.3967C25.963 25.187 25.187 25.963 24.3967 25.66C23.1223 25.1714 21.7477 26.0899 21.7114 27.4543C21.6889 28.3004 20.6751 28.7203 20.0608 28.138C19.0704 27.1989 17.449 27.5214 16.8933 28.768C16.5487 29.5411 15.4513 29.5411 15.1067 28.768C14.551 27.5214 12.9296 27.1989 11.9392 28.138C11.3249 28.7203 10.3111 28.3004 10.2886 27.4543C10.2523 26.0899 8.87771 25.1714 7.60329 25.66C6.81295 25.963 6.03703 25.187 6.34001 24.3967C6.82856 23.1223 5.91011 21.7477 4.54573 21.7114C3.69961 21.6889 3.27969 20.6751 3.86205 20.0608C4.80111 19.0704 4.47859 17.449 3.23198 16.8933C2.45889 16.5487 2.45889 15.4513 3.23198 15.1067C4.47859 14.551 4.80111 12.9296 3.86205 11.9392C3.27969 11.3249 3.69961 10.3111 4.54573 10.2886C5.9101 10.2523 6.82856 8.87771 6.34001 7.60329C6.03703 6.81295 6.81295 6.03703 7.60329 6.34001C8.87771 6.82856 10.2523 5.91011 10.2886 4.54573C10.3111 3.69961 11.3249 3.27969 11.9392 3.86205Z" stroke="currentColor"/>
<path d="M8.91075 16.07C8.46742 16.07 8.08708 16.0047 7.76975 15.874C7.45242 15.7433 7.21208 15.573 7.04875 15.363C6.89008 15.1483 6.80608 14.915 6.79675 14.663C6.79675 14.6257 6.81075 14.593 6.83875 14.565C6.87142 14.5323 6.90875 14.516 6.95075 14.516H7.83275C7.88875 14.516 7.93308 14.5277 7.96575 14.551C8.00308 14.5697 8.04042 14.6 8.07775 14.642C8.13842 14.7633 8.23642 14.8637 8.37175 14.943C8.50708 15.0223 8.68675 15.062 8.91075 15.062C9.17675 15.062 9.37975 15.02 9.51975 14.936C9.65975 14.852 9.72975 14.7377 9.72975 14.593C9.72975 14.4903 9.69242 14.4063 9.61775 14.341C9.54775 14.2757 9.43575 14.2173 9.28175 14.166C9.12775 14.1147 8.89908 14.0563 8.59575 13.991C8.03575 13.8743 7.61575 13.704 7.33575 13.48C7.06042 13.2513 6.92275 12.927 6.92275 12.507C6.92275 12.2223 7.00208 11.968 7.16075 11.744C7.31942 11.52 7.54575 11.345 7.83975 11.219C8.13375 11.093 8.47675 11.03 8.86875 11.03C9.27475 11.03 9.62708 11.1 9.92575 11.24C10.2244 11.38 10.4508 11.5573 10.6048 11.772C10.7634 11.982 10.8474 12.1897 10.8568 12.395C10.8568 12.437 10.8428 12.472 10.8148 12.5C10.7868 12.528 10.7518 12.542 10.7097 12.542H9.78575C9.72975 12.542 9.68308 12.5327 9.64575 12.514C9.61308 12.4953 9.58275 12.465 9.55475 12.423C9.52675 12.3157 9.44975 12.2247 9.32375 12.15C9.20242 12.0753 9.05075 12.038 8.86875 12.038C8.65875 12.038 8.49775 12.0753 8.38575 12.15C8.27375 12.2247 8.21775 12.3343 8.21775 12.479C8.21775 12.577 8.24808 12.6587 8.30875 12.724C8.37408 12.7893 8.47675 12.85 8.61675 12.906C8.76142 12.9573 8.96675 13.011 9.23275 13.067C9.66675 13.1463 10.0121 13.2467 10.2688 13.368C10.5301 13.4847 10.7214 13.6387 10.8428 13.83C10.9641 14.0167 11.0248 14.2523 11.0248 14.537C11.0248 14.8497 10.9338 15.1227 10.7518 15.356C10.5744 15.5847 10.3248 15.762 10.0028 15.888C9.68542 16.0093 9.32142 16.07 8.91075 16.07ZM13.7274 16.07C13.0694 16.07 12.5514 15.909 12.1734 15.587C11.7954 15.265 11.5947 14.7913 11.5714 14.166C11.5667 14.0307 11.5644 13.83 11.5644 13.564C11.5644 13.2933 11.5667 13.0903 11.5714 12.955C11.5947 12.339 11.7977 11.8653 12.1804 11.534C12.5677 11.198 13.0834 11.03 13.7274 11.03C14.3714 11.03 14.887 11.198 15.2744 11.534C15.6617 11.8653 15.8647 12.339 15.8834 12.955C15.8927 13.2257 15.8974 13.4287 15.8974 13.564C15.8974 13.6947 15.8927 13.8953 15.8834 14.166C15.86 14.7913 15.6594 15.265 15.2814 15.587C14.9034 15.909 14.3854 16.07 13.7274 16.07ZM13.7274 15.062C13.984 15.062 14.187 14.985 14.3364 14.831C14.4904 14.677 14.572 14.4413 14.5814 14.124C14.5907 13.8533 14.5954 13.662 14.5954 13.55C14.5954 13.4287 14.5907 13.2373 14.5814 12.976C14.572 12.6587 14.4904 12.423 14.3364 12.269C14.1824 12.115 13.9794 12.038 13.7274 12.038C13.4754 12.038 13.2724 12.115 13.1184 12.269C12.969 12.423 12.8874 12.6587 12.8734 12.976C12.8687 13.1067 12.8664 13.298 12.8664 13.55C12.8664 13.7973 12.8687 13.9887 12.8734 14.124C12.8874 14.4413 12.969 14.677 13.1184 14.831C13.2677 14.985 13.4707 15.062 13.7274 15.062ZM16.8838 16C16.8371 16 16.7951 15.9837 16.7578 15.951C16.7251 15.9137 16.7088 15.8717 16.7088 15.825V11.275C16.7088 11.2237 16.7251 11.1817 16.7578 11.149C16.7951 11.1163 16.8371 11.1 16.8838 11.1H17.8078C17.8591 11.1 17.9011 11.1163 17.9338 11.149C17.9664 11.1817 17.9828 11.2237 17.9828 11.275V14.943H20.1038C20.1551 14.943 20.1971 14.9617 20.2298 14.999C20.2624 15.0317 20.2788 15.0737 20.2788 15.125V15.825C20.2788 15.8717 20.2624 15.9137 20.2298 15.951C20.1971 15.9837 20.1551 16 20.1038 16H16.8838ZM21.0605 16C21.0138 16 20.9718 15.9837 20.9345 15.951C20.9018 15.9137 20.8855 15.8717 20.8855 15.825V11.275C20.8855 11.2237 20.9018 11.1817 20.9345 11.149C20.9718 11.1163 21.0138 11.1 21.0605 11.1H22.8805C23.5665 11.1 24.0985 11.2633 24.4765 11.59C24.8545 11.9167 25.0528 12.3903 25.0715 13.011C25.0762 13.1463 25.0785 13.326 25.0785 13.55C25.0785 13.774 25.0762 13.9513 25.0715 14.082C25.0482 14.7307 24.8545 15.2137 24.4905 15.531C24.1312 15.8437 23.6062 16 22.9155 16H21.0605ZM22.8805 14.992C23.1885 14.992 23.4148 14.9197 23.5595 14.775C23.7042 14.6257 23.7812 14.39 23.7905 14.068C23.7998 13.9327 23.8045 13.7577 23.8045 13.543C23.8045 13.3283 23.7998 13.1557 23.7905 13.025C23.7812 12.7123 23.6972 12.4813 23.5385 12.332C23.3845 12.1827 23.1535 12.108 22.8455 12.108H22.1455V14.992H22.8805ZM11.2596 23.07C10.6016 23.07 10.0836 22.909 9.70558 22.587C9.32758 22.265 9.12691 21.7913 9.10358 21.166C9.09891 21.0307 9.09658 20.83 9.09658 20.564C9.09658 20.2933 9.09891 20.0903 9.10358 19.955C9.12691 19.339 9.32991 18.8653 9.71258 18.534C10.0999 18.198 10.6156 18.03 11.2596 18.03C11.9036 18.03 12.4192 18.198 12.8066 18.534C13.1939 18.8653 13.3969 19.339 13.4156 19.955C13.4249 20.2257 13.4296 20.4287 13.4296 20.564C13.4296 20.6947 13.4249 20.8953 13.4156 21.166C13.3922 21.7913 13.1916 22.265 12.8136 22.587C12.4356 22.909 11.9176 23.07 11.2596 23.07ZM11.2596 22.062C11.5162 22.062 11.7192 21.985 11.8686 21.831C12.0226 21.677 12.1042 21.4413 12.1136 21.124C12.1229 20.8533 12.1276 20.662 12.1276 20.55C12.1276 20.4287 12.1229 20.2373 12.1136 19.976C12.1042 19.6587 12.0226 19.423 11.8686 19.269C11.7146 19.115 11.5116 19.038 11.2596 19.038C11.0076 19.038 10.8046 19.115 10.6506 19.269C10.5012 19.423 10.4196 19.6587 10.4056 19.976C10.4009 20.1067 10.3986 20.298 10.3986 20.55C10.3986 20.7973 10.4009 20.9887 10.4056 21.124C10.4196 21.4413 10.5012 21.677 10.6506 21.831C10.7999 21.985 11.0029 22.062 11.2596 22.062ZM16.299 23.07C15.641 23.07 15.1253 22.909 14.752 22.587C14.3833 22.265 14.199 21.7797 14.199 21.131V18.275C14.199 18.2237 14.2153 18.1817 14.248 18.149C14.2853 18.1163 14.3273 18.1 14.374 18.1H15.277C15.3283 18.1 15.3703 18.1163 15.403 18.149C15.4403 18.1817 15.459 18.2237 15.459 18.275V21.124C15.459 21.4273 15.529 21.656 15.669 21.81C15.8136 21.9593 16.0213 22.034 16.292 22.034C16.558 22.034 16.7633 21.957 16.908 21.803C17.0526 21.649 17.125 21.4227 17.125 21.124V18.275C17.125 18.2237 17.1413 18.1817 17.174 18.149C17.2113 18.1163 17.2533 18.1 17.3 18.1H18.21C18.2613 18.1 18.3033 18.1163 18.336 18.149C18.3686 18.1817 18.385 18.2237 18.385 18.275V21.131C18.385 21.7797 18.1983 22.265 17.825 22.587C17.4563 22.909 16.9476 23.07 16.299 23.07ZM20.5662 23C20.5196 23 20.4776 22.9837 20.4402 22.951C20.4076 22.9137 20.3912 22.8717 20.3912 22.825V19.199H19.1452C19.0986 19.199 19.0566 19.1827 19.0192 19.15C18.9866 19.1127 18.9702 19.0707 18.9702 19.024V18.275C18.9702 18.2237 18.9866 18.1817 19.0192 18.149C19.0566 18.1163 19.0986 18.1 19.1452 18.1H22.9112C22.9626 18.1 23.0046 18.1163 23.0372 18.149C23.0699 18.1817 23.0862 18.2237 23.0862 18.275V19.024C23.0862 19.0753 23.0699 19.1173 23.0372 19.15C23.0046 19.1827 22.9626 19.199 22.9112 19.199H21.6652V22.825C21.6652 22.8717 21.6489 22.9137 21.6162 22.951C21.5836 22.9837 21.5416 23 21.4902 23H20.5662Z" fill="currentColor"/>
</svg>
